<svg width="1440" height="305" viewBox="0 0 1440 305" fill="none" xmlns="http://www.w3.org/2000/svg">
<rect opacity="0.4" x="592" y="48.5" width="256" height="256" rx="128" fill="url(#paint0_linear_951_2414)"/>
<rect x="656.75" y="113.25" width="126.5" height="126.5" rx="63.25" stroke="url(#paint1_linear_951_2414)" stroke-opacity="0.8" stroke-width="1.5"/>
<rect x="624.75" y="81.25" width="190.5" height="190.5" rx="95.25" stroke="url(#paint2_linear_951_2414)" stroke-width="1.5"/>
<rect x="595.75" y="52.25" width="248.5" height="248.5" rx="124.25" stroke="url(#paint3_linear_951_2414)" stroke-width="1.5"/>
<g clip-path="url(#clip0_951_2414)">
<path d="M457 176.5C457 169.873 451.627 164.5 445 164.5C438.373 164.5 433 169.873 433 176.5C433 183.127 438.373 188.5 445 188.5C451.627 188.5 457 183.127 457 176.5Z" fill="#132C14"/>
<path d="M456.919 176.499C456.919 169.917 451.584 164.582 445.003 164.582C438.421 164.582 433.086 169.917 433.086 176.499C433.086 183.08 438.421 188.415 445.003 188.415C451.584 188.415 456.919 183.08 456.919 176.499Z" stroke="url(#paint4_linear_951_2414)" stroke-opacity="0.2" stroke-width="0.166667"/>
</g>
<g clip-path="url(#clip1_951_2414)">
<path fill-rule="evenodd" clip-rule="evenodd" d="M446.093 182.5V177.1H447.732L448 174.7H446.093V173.531C446.093 172.913 446.109 172.3 446.972 172.3H447.847V170.584C447.847 170.558 447.095 170.5 446.335 170.5C444.748 170.5 443.754 171.494 443.754 173.32V174.7H442V177.1H443.754V182.5H446.093Z" fill="white"/>
</g>
<g clip-path="url(#clip2_951_2414)">
<path d="M509 176.5C509 165.454 500.046 156.5 489 156.5C477.954 156.5 469 165.454 469 176.5C469 187.546 477.954 196.5 489 196.5C500.046 196.5 509 187.546 509 176.5Z" fill="#132C14"/>
<path d="M508.863 176.502C508.863 165.533 499.971 156.641 489.002 156.641C478.033 156.641 469.141 165.533 469.141 176.502C469.141 187.471 478.033 196.363 489.002 196.363C499.971 196.363 508.863 187.471 508.863 176.502Z" stroke="url(#paint5_linear_951_2414)" stroke-opacity="0.2" stroke-width="0.277778"/>
</g>
<g clip-path="url(#clip3_951_2414)">
<path d="M494.951 171.03C494.951 171.03 494.936 170.949 494.89 170.919C494.844 170.89 494.794 170.884 494.794 170.884L493.35 170.777L492.287 169.72C492.247 169.689 492.2 169.671 492.153 169.662C492.04 169.64 491.888 169.666 491.86 169.673L491.308 169.843C491.069 169.136 490.742 168.633 490.331 168.342C490.028 168.127 489.693 168.036 489.334 168.063C489.259 167.963 489.175 167.875 489.084 167.801C488.686 167.479 488.172 167.429 487.557 167.652C485.713 168.322 484.93 170.712 484.648 171.906L483.041 172.403C483.041 172.403 482.662 172.511 482.573 172.617C482.476 172.734 482.457 173.05 482.457 173.05L481.094 183.565L491.365 185.481L496.91 184.281L494.951 171.03ZM489.259 170.478L487.484 171.028C487.719 170.106 488.171 169.164 489.036 168.797C489.215 169.268 489.265 169.911 489.259 170.478ZM487.768 168.233C488.143 168.096 488.432 168.103 488.649 168.249C487.49 168.778 486.984 170.109 486.766 171.25L485.344 171.69C485.662 170.542 486.37 168.74 487.768 168.233ZM488.763 175.982C488.682 175.942 488.586 175.9 488.477 175.86C488.369 175.82 488.249 175.782 488.119 175.75C487.991 175.719 487.852 175.693 487.706 175.678C487.561 175.663 487.409 175.658 487.252 175.667C487.107 175.676 486.976 175.702 486.861 175.743C486.747 175.784 486.648 175.84 486.566 175.91C486.485 175.979 486.42 176.062 486.375 176.157C486.33 176.253 486.303 176.36 486.298 176.478C486.294 176.567 486.308 176.651 486.339 176.733C486.37 176.815 486.418 176.896 486.484 176.976C486.55 177.056 486.634 177.136 486.736 177.218C486.839 177.301 486.959 177.384 487.099 177.471C487.295 177.597 487.495 177.738 487.685 177.9C487.878 178.064 488.06 178.25 488.217 178.461C488.376 178.675 488.508 178.914 488.597 179.183C488.686 179.454 488.732 179.753 488.718 180.081C488.694 180.62 488.576 181.084 488.381 181.468C488.189 181.848 487.923 182.146 487.603 182.363C487.29 182.574 486.927 182.705 486.532 182.758C486.149 182.809 485.738 182.787 485.315 182.693C485.312 182.693 485.308 182.691 485.305 182.691C485.301 182.69 485.298 182.689 485.295 182.689C485.292 182.688 485.288 182.687 485.285 182.686C485.281 182.686 485.278 182.685 485.275 182.684C485.076 182.636 484.884 182.573 484.704 182.5C484.527 182.429 484.36 182.347 484.209 182.259C484.059 182.172 483.924 182.078 483.806 181.981C483.69 181.885 483.592 181.787 483.514 181.687L483.981 180.136C484.06 180.203 484.157 180.279 484.267 180.356C484.378 180.434 484.502 180.514 484.636 180.589C484.771 180.664 484.915 180.734 485.064 180.791C485.214 180.849 485.369 180.893 485.523 180.916C485.658 180.935 485.779 180.931 485.885 180.908C485.992 180.884 486.083 180.839 486.157 180.778C486.232 180.718 486.291 180.641 486.331 180.553C486.372 180.464 486.395 180.365 486.399 180.258C486.404 180.151 486.394 180.051 486.367 179.953C486.341 179.856 486.297 179.761 486.234 179.667C486.171 179.572 486.089 179.477 485.986 179.38C485.884 179.283 485.761 179.183 485.616 179.077C485.437 178.943 485.27 178.799 485.12 178.642C484.971 178.487 484.84 178.319 484.732 178.137C484.626 177.956 484.542 177.761 484.487 177.549C484.433 177.338 484.408 177.109 484.418 176.86C484.437 176.444 484.52 176.06 484.659 175.715C484.8 175.366 484.999 175.053 485.249 174.783C485.504 174.508 485.815 174.276 486.172 174.097C486.54 173.914 486.96 173.785 487.426 173.724C487.642 173.695 487.85 173.682 488.046 173.681C488.245 173.68 488.432 173.692 488.604 173.714C488.779 173.736 488.938 173.769 489.079 173.809C489.221 173.849 489.344 173.896 489.446 173.948L488.763 175.982ZM489.875 170.288C489.874 170.218 489.872 170.147 489.87 170.075C489.849 169.523 489.774 169.057 489.646 168.68C489.786 168.694 489.912 168.74 490.027 168.822C490.349 169.05 490.58 169.508 490.743 170.019L489.875 170.288Z" fill="white"/>
</g>
<g clip-path="url(#clip4_951_2414)">
<path d="M577 176.5C577 161.036 564.464 148.5 549 148.5C533.536 148.5 521 161.036 521 176.5C521 191.964 533.536 204.5 549 204.5C564.464 204.5 577 191.964 577 176.5Z" fill="#132C14"/>
<path d="M576.806 176.501C576.806 161.144 564.357 148.695 549.001 148.695C533.644 148.695 521.195 161.144 521.195 176.501C521.195 191.857 533.644 204.306 549.001 204.306C564.357 204.306 576.806 191.857 576.806 176.501Z" stroke="url(#paint6_linear_951_2414)" stroke-opacity="0.2" stroke-width="0.388889"/>
</g>
<g clip-path="url(#clip5_951_2414)">
<path d="M549.753 178.44H553.284C554.289 178.44 554.924 177.887 554.924 177C554.924 176.163 554.289 175.56 553.284 175.56H549.753C549.636 175.56 549.534 175.66 549.534 175.761V178.24C549.552 178.356 549.635 178.44 549.753 178.44ZM549.753 184.152H553.402C554.523 184.152 555.193 183.583 555.193 182.577C555.193 181.707 554.557 181.002 553.402 181.002H549.753C549.636 181.002 549.534 181.104 549.534 181.204V183.934C549.552 184.068 549.635 184.152 549.753 184.152ZM562.673 162.562L552.228 172.98H553.936C556.597 172.98 558.171 174.655 558.171 176.48C558.171 177.921 557.201 178.977 556.162 179.445C555.995 179.513 555.995 179.747 556.179 179.814C557.384 180.283 558.238 181.54 558.238 183.013C558.238 185.089 556.849 186.748 554.154 186.748H546.755C546.639 186.748 546.537 186.648 546.537 186.548V178.659L535.072 190.08C534.921 190.232 535.022 190.499 535.239 190.499H562.809C562.857 190.498 562.904 190.479 562.938 190.444C562.973 190.41 562.992 190.363 562.993 190.315V162.713C563.043 162.528 562.809 162.428 562.675 162.561L562.673 162.562Z" fill="#FCFDFF"/>
</g>
<g clip-path="url(#clip6_951_2414)">
<path d="M661 176.5C661 156.618 644.882 140.5 625 140.5C605.118 140.5 589 156.618 589 176.5C589 196.382 605.118 212.5 625 212.5C644.882 212.5 661 196.382 661 176.5Z" fill="#132C14"/>
<path d="M660.75 176.5C660.75 156.756 644.744 140.75 625 140.75C605.256 140.75 589.25 156.756 589.25 176.5C589.25 196.244 605.256 212.25 625 212.25C644.744 212.25 660.75 196.244 660.75 176.5Z" stroke="url(#paint7_linear_951_2414)" stroke-opacity="0.2" stroke-width="0.5"/>
</g>
<path fill-rule="evenodd" clip-rule="evenodd" d="M639.644 165.742H610.341C608.487 165.742 606.985 167.258 607 169.098V180.283C607 182.138 608.501 183.639 610.356 183.639H624.235L630.578 187.171L629.136 183.639H639.644C641.499 183.639 643 182.138 643 180.283V169.098C643 167.243 641.499 165.742 639.644 165.742ZM609.723 168.333C609.311 168.362 609.002 168.509 608.796 168.789C608.59 169.054 608.516 169.392 608.56 169.775C609.429 175.294 610.238 179.018 610.989 180.946C611.283 181.652 611.622 181.991 612.019 181.961C612.637 181.917 613.373 181.063 614.241 179.4C614.698 178.458 615.404 177.046 616.361 175.162C617.156 177.943 618.245 180.033 619.613 181.431C619.996 181.829 620.394 182.005 620.776 181.976C621.115 181.947 621.38 181.77 621.556 181.446C621.703 181.166 621.762 180.843 621.733 180.475C621.645 179.135 621.777 177.266 622.145 174.867C622.528 172.395 622.999 170.614 623.573 169.554C623.69 169.333 623.734 169.113 623.72 168.848C623.69 168.509 623.543 168.229 623.263 168.009C622.984 167.788 622.675 167.685 622.336 167.714C621.909 167.744 621.586 167.95 621.365 168.362C620.452 170.025 619.805 172.718 619.422 176.457C618.863 175.044 618.392 173.381 618.024 171.423C617.862 170.555 617.465 170.143 616.817 170.187C616.376 170.216 616.008 170.511 615.713 171.07L612.49 177.207C611.96 175.073 611.46 172.468 611.004 169.392C610.901 168.627 610.474 168.274 609.723 168.333ZM638.084 169.392C639.129 169.613 639.909 170.172 640.439 171.1C640.91 171.894 641.146 172.851 641.146 173.999C641.146 175.515 640.763 176.898 639.998 178.164C639.115 179.636 637.967 180.372 636.539 180.372C636.289 180.372 636.024 180.342 635.744 180.283C634.699 180.063 633.919 179.503 633.389 178.576C632.918 177.767 632.683 176.795 632.683 175.662C632.683 174.146 633.066 172.763 633.831 171.512C634.729 170.04 635.877 169.304 637.29 169.304C637.54 169.304 637.805 169.333 638.084 169.392ZM637.466 177.355C638.011 176.869 638.379 176.148 638.585 175.176C638.644 174.838 638.688 174.47 638.688 174.087C638.688 173.66 638.599 173.204 638.423 172.748C638.202 172.174 637.908 171.865 637.554 171.791C637.025 171.688 636.51 171.983 636.024 172.704C635.626 173.263 635.376 173.852 635.244 174.455C635.17 174.794 635.141 175.162 635.141 175.53C635.141 175.956 635.229 176.413 635.406 176.869C635.626 177.443 635.921 177.752 636.274 177.826C636.642 177.899 637.039 177.737 637.466 177.355ZM631.211 171.1C630.681 170.172 629.886 169.613 628.856 169.392C628.577 169.333 628.312 169.304 628.061 169.304C626.649 169.304 625.501 170.04 624.603 171.512C623.837 172.763 623.455 174.146 623.455 175.662C623.455 176.795 623.69 177.767 624.161 178.576C624.691 179.503 625.471 180.063 626.516 180.283C626.796 180.342 627.061 180.372 627.311 180.372C628.738 180.372 629.886 179.636 630.77 178.164C631.535 176.898 631.918 175.515 631.918 173.999C631.918 172.851 631.682 171.894 631.211 171.1ZM629.357 175.176C629.151 176.148 628.783 176.869 628.238 177.355C627.811 177.737 627.414 177.899 627.046 177.826C626.693 177.752 626.398 177.443 626.178 176.869C626.001 176.413 625.913 175.956 625.913 175.53C625.913 175.162 625.942 174.794 626.016 174.455C626.148 173.852 626.398 173.263 626.796 172.704C627.281 171.983 627.797 171.688 628.326 171.791C628.68 171.865 628.974 172.174 629.195 172.748C629.371 173.204 629.46 173.66 629.46 174.087C629.46 174.47 629.43 174.838 629.357 175.176Z" fill="#FCFDFF"/>
<path d="M767.702 176.5C767.702 150.706 746.793 129.797 721 129.797C695.206 129.797 674.297 150.706 674.297 176.5C674.297 202.293 695.206 223.202 721 223.202C746.793 223.202 767.702 202.293 767.702 176.5Z" fill="url(#paint8_linear_951_2414)" fill-opacity="0.3"/>
<path d="M767.702 176.5C767.702 150.706 746.793 129.797 721 129.797C695.206 129.797 674.297 150.706 674.297 176.5C674.297 202.293 695.206 223.202 721 223.202C746.793 223.202 767.702 202.293 767.702 176.5Z" stroke="url(#paint9_linear_951_2414)" stroke-opacity="0.2" stroke-width="0.648649"/>
<g clip-path="url(#clip7_951_2414)">
<path fill-rule="evenodd" clip-rule="evenodd" d="M721 200.5C734.255 200.5 745 189.755 745 176.5C745 163.245 734.255 152.5 721 152.5C707.745 152.5 697 163.245 697 176.5C697 189.755 707.745 200.5 721 200.5ZM720.5 163.5C719.837 163.5 719.201 163.763 718.732 164.232C718.263 164.701 718 165.337 718 166V174.5H710.5C709.837 174.5 709.201 174.763 708.732 175.232C708.263 175.701 708 176.337 708 177C708 177.663 708.263 178.299 708.732 178.768C709.201 179.237 709.837 179.5 710.5 179.5H718V187C718 187.663 718.263 188.299 718.732 188.768C719.201 189.237 719.837 189.5 720.5 189.5C721.163 189.5 721.799 189.237 722.268 188.768C722.737 188.299 723 187.663 723 187V179.5H731.5C732.163 179.5 732.799 179.237 733.268 178.768C733.737 178.299 734 177.663 734 177C734 176.337 733.737 175.701 733.268 175.232C732.799 174.763 732.163 174.5 731.5 174.5H723V166C723 165.337 722.737 164.701 722.268 164.232C721.799 163.763 721.163 163.5 720.5 163.5Z" fill="url(#paint10_linear_951_2414)" fill-opacity="0.8"/>
<path d="M744.5 176.5C744.5 189.479 733.979 200 721 200C708.021 200 697.5 189.479 697.5 176.5C697.5 163.521 708.021 153 721 153C733.979 153 744.5 163.521 744.5 176.5ZM720.5 163C719.704 163 718.941 163.316 718.379 163.879C717.816 164.441 717.5 165.204 717.5 166V174H710.5C709.704 174 708.941 174.316 708.379 174.879C707.816 175.441 707.5 176.204 707.5 177C707.5 177.796 707.816 178.559 708.379 179.121C708.941 179.684 709.704 180 710.5 180H717.5V187C717.5 187.394 717.578 187.784 717.728 188.148C717.879 188.512 718.1 188.843 718.379 189.121C718.657 189.4 718.988 189.621 719.352 189.772C719.716 189.922 720.106 190 720.5 190C720.894 190 721.284 189.922 721.648 189.772C722.012 189.621 722.343 189.4 722.621 189.121C722.9 188.843 723.121 188.512 723.272 188.148C723.422 187.784 723.5 187.394 723.5 187V180H731.5C732.296 180 733.059 179.684 733.621 179.121C734.184 178.559 734.5 177.796 734.5 177C734.5 176.204 734.184 175.441 733.621 174.879C733.059 174.316 732.296 174 731.5 174H723.5V166C723.5 165.204 723.184 164.441 722.621 163.879C722.059 163.316 721.296 163 720.5 163Z" stroke="url(#paint11_linear_951_2414)" stroke-opacity="0.2"/>
</g>
<g clip-path="url(#clip8_951_2414)">
<path d="M853 176.5C853 156.618 836.882 140.5 817 140.5C797.118 140.5 781 156.618 781 176.5C781 196.382 797.118 212.5 817 212.5C836.882 212.5 853 196.382 853 176.5Z" fill="#132C14"/>
<path d="M852.75 176.5C852.75 156.756 836.744 140.75 817 140.75C797.256 140.75 781.25 156.756 781.25 176.5C781.25 196.244 797.256 212.25 817 212.25C836.744 212.25 852.75 196.244 852.75 176.5Z" stroke="url(#paint12_linear_951_2414)" stroke-opacity="0.2" stroke-width="0.5"/>
</g>
<path fill-rule="evenodd" clip-rule="evenodd" d="M819.647 174.949C819.647 176.8 819.691 178.343 818.758 179.987C818.004 181.325 816.804 182.146 815.471 182.146C813.649 182.146 812.583 180.759 812.583 178.702C812.583 174.657 816.212 173.922 819.647 173.922V174.949ZM824.436 186.529C824.121 186.81 823.667 186.83 823.313 186.639C821.735 185.328 821.452 184.722 820.591 183.474C817.984 186.13 816.137 186.926 812.761 186.926C808.762 186.926 805.653 184.459 805.653 179.525C805.653 175.669 807.74 173.048 810.717 171.762C813.294 170.631 816.893 170.426 819.647 170.117V169.5C819.647 168.37 819.735 167.033 819.069 166.057C818.492 165.183 817.381 164.823 816.404 164.823C814.593 164.823 812.982 165.751 812.587 167.674C812.504 168.103 812.193 168.526 811.761 168.548L807.159 168.049C806.77 167.962 806.338 167.65 806.45 167.057C807.508 161.472 812.551 159.785 817.07 159.785C819.38 159.785 822.401 160.402 824.223 162.15C826.533 164.309 826.311 167.188 826.311 170.323V177.722C826.311 179.947 827.235 180.924 828.103 182.125C828.407 182.555 828.475 183.07 828.089 183.385C827.118 184.198 825.394 185.696 824.446 186.539L824.436 186.529ZM830.944 187.845C826.534 189.716 821.741 190.62 817.382 190.62C810.918 190.62 804.661 188.847 799.601 185.902C799.158 185.644 798.83 186.099 799.198 186.432C803.888 190.667 810.086 193.212 816.968 193.212C821.879 193.212 827.582 191.667 831.516 188.764C832.166 188.283 831.609 187.563 830.944 187.845ZM832.118 191.38C831.975 191.739 832.283 191.885 832.608 191.612C834.718 189.846 835.264 186.148 834.831 185.613C834.403 185.084 830.713 184.627 828.461 186.208C828.115 186.453 828.175 186.788 828.559 186.742C829.827 186.589 832.65 186.251 833.153 186.895C833.656 187.54 832.593 190.194 832.118 191.38Z" fill="white"/>
<g clip-path="url(#clip9_951_2414)">
<path d="M921 176.5C921 161.036 908.464 148.5 893 148.5C877.536 148.5 865 161.036 865 176.5C865 191.964 877.536 204.5 893 204.5C908.464 204.5 921 191.964 921 176.5Z" fill="#132C14"/>
<path d="M920.806 176.501C920.806 161.144 908.357 148.695 893.001 148.695C877.644 148.695 865.195 161.144 865.195 176.501C865.195 191.857 877.644 204.306 893.001 204.306C908.357 204.306 920.806 191.857 920.806 176.501Z" stroke="url(#paint13_linear_951_2414)" stroke-opacity="0.2" stroke-width="0.388889"/>
</g>
<path d="M885.106 176.146C885.106 176.143 885.106 176.139 885.106 176.135C885.106 175.201 884.349 174.444 883.415 174.444C883.346 174.444 883.278 174.449 883.211 174.457L883.219 174.456C883.166 174.451 883.105 174.447 883.043 174.447C882.082 174.447 881.295 175.195 881.235 176.141V176.146H885.106ZM889.862 178.896C889.873 178.896 889.885 178.896 889.898 178.896C891.016 178.896 891.922 177.989 891.922 176.872C891.922 176.807 891.919 176.742 891.913 176.678L891.914 176.686C891.917 176.645 891.919 176.598 891.919 176.551C891.919 175.406 890.99 174.478 889.846 174.478C888.701 174.478 887.773 175.406 887.773 176.551C887.773 176.599 887.775 176.646 887.777 176.693V176.687C887.772 176.743 887.768 176.808 887.768 176.873C887.768 177.99 888.674 178.896 889.791 178.896C889.804 178.896 889.816 178.896 889.829 178.896H889.827H889.862ZM896.489 176.845C895.292 176.882 894.553 177.1 894.553 177.884C894.553 178.392 894.947 178.945 895.98 178.945C896.056 178.955 896.144 178.962 896.233 178.962C897.265 178.962 898.1 178.126 898.1 177.095C898.1 177.049 898.099 177.001 898.095 176.956V176.962V176.82C897.603 176.82 897.013 176.827 896.473 176.844H896.486L896.489 176.845ZM886.498 176.645V171.266H887.81V174.574C888.358 173.962 889.151 173.577 890.034 173.577C890.099 173.577 890.163 173.579 890.227 173.584L890.218 173.583C890.248 173.582 890.282 173.581 890.317 173.581C891.972 173.581 893.313 174.922 893.313 176.577C893.313 176.621 893.312 176.666 893.311 176.71V176.704C893.311 176.72 893.311 176.738 893.311 176.756C893.311 176.996 893.287 177.23 893.241 177.456L893.244 177.433C893.507 176.391 894.637 176.006 896.411 175.963C896.968 175.943 897.608 175.943 898.116 175.943V175.795C898.116 174.828 897.508 174.435 896.443 174.435C895.656 174.435 895.082 174.763 895.016 175.32H893.622C893.771 173.91 895.262 173.549 896.56 173.549C896.67 173.534 896.798 173.526 896.928 173.526C897.855 173.526 898.678 173.97 899.195 174.658L899.2 174.665L898.723 173.746H900.265L902.512 178.257L904.759 173.745H906.118L902.05 181.733H900.578L901.748 179.503L899.2 174.714C899.339 174.993 899.42 175.321 899.42 175.669C899.42 175.69 899.42 175.712 899.419 175.733V175.73V178.42C899.419 178.798 899.43 179.174 899.463 179.519H898.245C898.213 179.267 898.195 178.977 898.195 178.683C897.652 179.334 896.841 179.745 895.934 179.745C895.837 179.745 895.741 179.741 895.646 179.731L895.658 179.732C894.04 179.732 893.174 178.879 893.174 177.879C893.174 177.722 893.189 177.569 893.217 177.42L893.214 177.435C892.892 178.755 891.72 179.719 890.323 179.719C890.275 179.719 890.229 179.718 890.183 179.715H890.19C890.155 179.717 890.113 179.718 890.072 179.718C889.165 179.718 888.349 179.326 887.786 178.701L887.783 178.699C887.782 178.983 887.767 179.261 887.736 179.536L887.74 179.501H886.449C886.471 179.075 886.493 178.567 886.493 178.14V176.992H881.211C881.214 178.045 882.068 178.897 883.121 178.897C883.162 178.897 883.203 178.897 883.243 178.894H883.238C883.288 178.899 883.348 178.903 883.407 178.903C884.099 178.903 884.692 178.484 884.948 177.888L884.953 177.877H886.309C886.046 179.288 884.548 179.764 883.259 179.764C880.915 179.786 879.877 178.489 879.877 176.75C879.871 176.678 879.867 176.594 879.867 176.51C879.867 174.866 881.199 173.534 882.842 173.534C882.998 173.534 883.151 173.547 883.301 173.569L883.284 173.568C883.386 173.555 883.502 173.548 883.621 173.548C885.214 173.548 886.506 174.839 886.506 176.432C886.506 176.504 886.503 176.575 886.498 176.645L886.499 176.635V176.64L886.498 176.645Z" fill="white"/>
<g clip-path="url(#clip10_951_2414)">
<path d="M973 176.5C973 165.454 964.046 156.5 953 156.5C941.954 156.5 933 165.454 933 176.5C933 187.546 941.954 196.5 953 196.5C964.046 196.5 973 187.546 973 176.5Z" fill="#132C14"/>
<path d="M972.863 176.502C972.863 165.533 963.971 156.641 953.002 156.641C942.033 156.641 933.141 165.533 933.141 176.502C933.141 187.471 942.033 196.363 953.002 196.363C963.971 196.363 972.863 187.471 972.863 176.502Z" stroke="url(#paint14_linear_951_2414)" stroke-opacity="0.2" stroke-width="0.277778"/>
</g>
<g clip-path="url(#clip11_951_2414)">
<path d="M962.959 175.028C963.098 175.028 963.213 174.955 963.228 174.862L963.366 173.307C963.366 173.153 963.186 173.027 962.959 173.027C962.733 173.027 962.553 173.153 962.553 173.307L962.691 174.862C962.706 174.955 962.82 175.028 962.959 175.028H962.959ZM962.118 175.513C962.188 175.393 962.183 175.258 962.109 175.197L960.832 174.301C960.699 174.224 960.5 174.317 960.386 174.513C960.273 174.709 960.293 174.927 960.426 175.004L961.841 175.663C961.929 175.696 962.05 175.633 962.119 175.512L962.118 175.513ZM963.8 175.513C963.869 175.633 963.989 175.696 964.078 175.663L965.493 175.004C965.626 174.927 965.645 174.709 965.533 174.513C965.419 174.317 965.22 174.224 965.087 174.301L963.809 175.197C963.736 175.258 963.731 175.393 963.8 175.513L963.8 175.513ZM962.959 176.97C963.098 176.97 963.213 177.042 963.228 177.135L963.366 178.69C963.366 178.844 963.186 178.97 962.959 178.97C962.733 178.97 962.553 178.844 962.553 178.69L962.691 177.135C962.706 177.042 962.82 176.97 962.959 176.97H962.959ZM963.8 176.484C963.869 176.363 963.989 176.301 964.078 176.334L965.493 176.992C965.626 177.069 965.645 177.288 965.533 177.484C965.419 177.68 965.22 177.773 965.087 177.696L963.809 176.8C963.736 176.74 963.731 176.604 963.8 176.484H963.8M962.118 176.484C962.188 176.604 962.183 176.74 962.109 176.8L960.832 177.696C960.699 177.773 960.5 177.68 960.386 177.484C960.273 177.288 960.293 177.069 960.426 176.992L961.841 176.334C961.929 176.301 962.05 176.363 962.119 176.484H962.118" fill="white"/>
<path d="M954.9 176.801C954.9 176.848 954.895 176.897 954.882 176.941C954.828 177.12 954.642 177.272 954.41 177.272C954.216 177.272 954.062 177.162 954.062 176.929C954.062 176.573 954.454 176.475 954.9 176.477L954.9 176.8V176.801ZM955.599 176.18C955.599 175.593 955.348 175.077 954.501 175.077C954.066 175.077 953.721 175.199 953.532 175.308L953.67 175.78C953.843 175.671 954.117 175.581 954.377 175.581C954.807 175.58 954.877 175.824 954.877 175.981V176.018C953.94 176.017 953.348 176.341 953.348 177.002C953.348 177.406 953.649 177.784 954.174 177.784C954.496 177.784 954.766 177.655 954.927 177.449H954.943C954.943 177.449 955.05 177.897 955.64 177.726C955.609 177.539 955.599 177.341 955.599 177.102L955.599 176.18M941 174.277C941 174.277 941.612 176.786 941.71 177.194C941.824 177.669 942.03 177.844 942.622 177.726L943.004 176.17C943.101 175.784 943.166 175.508 943.229 175.115H943.24C943.283 175.512 943.346 175.785 943.425 176.172C943.425 176.172 943.581 176.878 943.661 177.248C943.741 177.619 943.963 177.853 944.543 177.726L945.454 174.277H944.719L944.408 175.768C944.324 176.202 944.248 176.541 944.19 176.938H944.179C944.126 176.545 944.058 176.219 943.974 175.797L943.65 174.277H942.884L942.537 175.758C942.439 176.209 942.347 176.572 942.289 176.955H942.278C942.218 176.594 942.139 176.137 942.053 175.702C942.053 175.702 941.847 174.643 941.775 174.277L941 174.277ZM946.845 176.801C946.845 176.848 946.841 176.897 946.828 176.941C946.774 177.12 946.588 177.272 946.355 177.272C946.161 177.272 946.007 177.162 946.007 176.929C946.007 176.573 946.399 176.475 946.845 176.477L946.845 176.8V176.801ZM947.545 176.18C947.545 175.593 947.294 175.077 946.447 175.077C946.011 175.077 945.666 175.199 945.478 175.308L945.615 175.78C945.788 175.671 946.062 175.581 946.322 175.581C946.752 175.58 946.822 175.824 946.822 175.981V176.018C945.885 176.017 945.293 176.341 945.293 177.002C945.293 177.406 945.595 177.784 946.119 177.784C946.441 177.784 946.711 177.655 946.873 177.449H946.888C946.888 177.449 946.996 177.897 947.585 177.726C947.555 177.539 947.545 177.341 947.545 177.102V176.18ZM948.712 176.994V174.277H948.012V177.726H948.712V176.994ZM957.874 174.277V176.821C957.874 177.172 957.94 177.418 958.081 177.568C958.205 177.699 958.408 177.784 958.651 177.784C958.858 177.784 959.062 177.745 959.158 177.709L959.149 177.162C959.078 177.18 958.996 177.194 958.883 177.194C958.645 177.194 958.565 177.041 958.565 176.726V175.753H959.175V175.093H958.565V174.277H957.874ZM956.066 175.135V177.726H956.789V176.399C956.789 176.328 956.793 176.265 956.804 176.208C956.858 175.93 957.07 175.753 957.375 175.753C957.459 175.753 957.519 175.762 957.584 175.771V175.093C957.529 175.082 957.492 175.077 957.425 175.077C957.155 175.077 956.848 175.251 956.72 175.624H956.7V175.135H956.066ZM949.202 175.135V177.726H949.906V176.207C949.906 176.135 949.915 176.06 949.939 175.995C949.998 175.842 950.14 175.663 950.367 175.663C950.651 175.663 950.784 175.903 950.784 176.249V177.726H951.487V176.188C951.487 176.12 951.497 176.038 951.517 175.978C951.574 175.804 951.728 175.662 951.939 175.662C952.227 175.662 952.365 175.898 952.365 176.306V177.726H953.069V176.2C953.069 175.395 952.66 175.077 952.199 175.077C951.995 175.077 951.834 175.128 951.688 175.217C951.565 175.293 951.456 175.399 951.36 175.54H951.349C951.238 175.261 950.976 175.077 950.635 175.077C950.197 175.077 950 175.299 949.881 175.487H949.87V175.135H949.202" fill="white"/>
<path d="M965.848 177.598H965.858C965.872 177.598 965.881 177.592 965.881 177.583C965.881 177.573 965.873 177.568 965.86 177.568C965.855 177.568 965.851 177.569 965.848 177.569V177.598V177.598L965.848 177.598ZM965.846 177.667H965.809V177.545C965.817 177.544 965.837 177.541 965.862 177.541C965.89 177.541 965.902 177.545 965.911 177.551C965.919 177.556 965.924 177.565 965.924 177.578C965.924 177.59 965.913 177.601 965.896 177.605V177.607C965.91 177.611 965.917 177.621 965.921 177.638C965.925 177.656 965.927 177.663 965.93 177.667H965.887C965.884 177.663 965.881 177.652 965.879 177.641C965.877 177.629 965.871 177.623 965.858 177.623H965.846L965.846 177.667ZM965.862 177.506C965.808 177.506 965.767 177.55 965.767 177.605C965.767 177.66 965.808 177.704 965.863 177.704C965.918 177.705 965.959 177.66 965.959 177.604C965.959 177.549 965.918 177.506 965.862 177.506H965.862ZM965.864 177.473C965.939 177.473 965.999 177.532 965.999 177.604C965.999 177.678 965.939 177.737 965.863 177.737C965.787 177.737 965.727 177.678 965.727 177.604C965.727 177.532 965.787 177.473 965.863 177.473H965.864" fill="white"/>
</g>
<g clip-path="url(#clip12_951_2414)">
<path d="M1009 176.5C1009 169.873 1003.63 164.5 997 164.5C990.373 164.5 985 169.873 985 176.5C985 183.127 990.373 188.5 997 188.5C1003.63 188.5 1009 183.127 1009 176.5Z" fill="#132C14"/>
<path d="M1008.92 176.499C1008.92 169.917 1003.58 164.582 997.003 164.582C990.421 164.582 985.086 169.917 985.086 176.499C985.086 183.08 990.421 188.415 997.003 188.415C1003.58 188.415 1008.92 183.08 1008.92 176.499Z" stroke="url(#paint15_linear_951_2414)" stroke-opacity="0.2" stroke-width="0.166667"/>
</g>
<g clip-path="url(#clip13_951_2414)">
<path d="M992.287 175.712V174.103C992.287 174.043 992.293 174.008 992.394 174.008H993.758C993.997 174.008 994.128 174.21 994.223 174.592L994.301 174.895H994.533C994.575 174.032 994.61 173.656 994.61 173.656C994.61 173.656 994.027 173.722 993.681 173.722H991.935L991 173.692V173.942L991.316 174.002C991.536 174.043 991.59 174.091 991.608 174.294C991.608 174.294 991.626 174.889 991.626 175.873C991.626 176.855 991.608 177.445 991.608 177.445C991.608 177.624 991.536 177.69 991.316 177.731L991 177.791V178.041L991.935 178.011H993.496C993.848 178.011 994.664 178.041 994.664 178.041C994.682 177.827 994.801 176.855 994.819 176.748H994.599L994.366 177.279C994.181 177.696 993.913 177.725 993.616 177.725H992.728C992.43 177.725 992.287 177.606 992.287 177.35V175.992C992.287 175.992 992.936 175.992 993.163 176.01C993.329 176.022 993.431 176.069 993.484 176.302L993.556 176.611H993.812L993.794 175.831L993.83 175.044H993.574L993.49 175.39C993.437 175.616 993.401 175.658 993.169 175.682C992.906 175.712 992.287 175.706 992.287 175.706V175.712H992.287V175.712ZM995.82 174.27C995.736 174.639 995.653 174.925 995.361 175.116C995.182 175.235 995.004 175.277 994.932 175.283V175.509H995.462V177.338C995.462 177.85 995.802 178.101 996.255 178.101C996.606 178.101 996.97 177.952 997.095 177.642L996.97 177.481C996.91 177.582 996.719 177.731 996.481 177.731C996.219 177.731 996.076 177.552 996.076 177.1V175.485L996.958 175.551L997.005 175.146L996.076 175.181V174.276L995.82 174.27ZM997.702 177.083L997.476 177.089C997.488 177.22 997.494 177.387 997.494 177.542C997.494 177.703 997.488 177.852 997.476 177.923C997.476 177.923 997.929 178.09 998.388 178.09C999.007 178.09 999.502 177.792 999.502 177.208C999.502 176.207 998 176.356 998 175.683C998 175.403 998.251 175.296 998.525 175.296C998.739 175.296 998.918 175.373 998.954 175.486L999.103 175.933L999.323 175.921C999.341 175.683 999.353 175.409 999.389 175.189C999.198 175.105 998.799 175.057 998.549 175.057C997.965 175.057 997.494 175.314 997.494 175.886C997.494 176.88 998.96 176.678 998.96 177.411C998.96 177.673 998.799 177.858 998.435 177.858C998.102 177.858 997.935 177.685 997.87 177.512L997.702 177.083ZM1001.29 177.771C1000.95 178.735 1000.53 178.984 1000.15 178.984C999.985 178.984 999.908 178.913 999.884 178.8L999.795 178.336L999.545 178.348C999.497 178.622 999.45 178.925 999.384 179.175C999.533 179.288 999.783 179.347 999.979 179.347C1000.39 179.347 1001.01 179.294 1001.58 177.938L1002.54 175.678C1002.62 175.494 1002.65 175.476 1002.88 175.387L1003 175.339V175.131L1002.44 175.161L1001.83 175.131V175.339L1001.98 175.387C1002.14 175.434 1002.21 175.494 1002.21 175.601C1002.21 175.654 1002.19 175.708 1002.16 175.791C1002.07 176.017 1001.52 177.361 1001.37 177.647L1001.52 177.593C1001.26 176.945 1000.86 175.862 1000.8 175.678C1000.79 175.642 1000.78 175.613 1000.78 175.583C1000.78 175.488 1000.85 175.41 1000.99 175.381L1001.19 175.339V175.131L1000.37 175.161L999.723 175.131V175.339L999.83 175.375C999.979 175.422 1000.01 175.464 1000.1 175.672C1000.6 176.802 1000.83 177.421 1001.14 178.229L1001.29 177.771Z" fill="white"/>
</g>
<path d="M561.987 67.2727V76H560.67V67.2727H561.987ZM573.348 67.2727V76H572.138L567.702 69.5994H567.621V76H566.304V67.2727H567.523L571.963 73.6818H572.044V67.2727H573.348ZM577.239 68.4062V67.2727H583.993V68.4062H581.27V76H579.957V68.4062H577.239ZM587.885 76V67.2727H593.357V68.4062H589.202V71.0653H593.071V72.1946H589.202V74.8665H593.408V76H587.885ZM603.422 70.0298C603.34 69.7713 603.229 69.5398 603.09 69.3352C602.953 69.1278 602.79 68.9517 602.6 68.8068C602.409 68.6591 602.192 68.5469 601.948 68.4702C601.706 68.3935 601.441 68.3551 601.151 68.3551C600.659 68.3551 600.216 68.4815 599.821 68.7344C599.426 68.9872 599.114 69.358 598.884 69.8466C598.656 70.3324 598.543 70.9276 598.543 71.6321C598.543 72.3395 598.658 72.9375 598.888 73.4261C599.118 73.9148 599.433 74.2855 599.834 74.5384C600.235 74.7912 600.691 74.9176 601.202 74.9176C601.676 74.9176 602.09 74.821 602.442 74.6278C602.797 74.4347 603.071 74.1619 603.264 73.8097C603.46 73.4545 603.558 73.0369 603.558 72.5568L603.899 72.6207H601.402V71.5341H604.833V72.527C604.833 73.2599 604.676 73.8963 604.364 74.4361C604.054 74.973 603.625 75.3878 603.077 75.6804C602.531 75.973 601.906 76.1193 601.202 76.1193C600.412 76.1193 599.719 75.9375 599.122 75.5739C598.529 75.2102 598.066 74.6946 597.733 74.027C597.401 73.3565 597.235 72.5611 597.235 71.6406C597.235 70.9446 597.331 70.3196 597.524 69.7656C597.718 69.2116 597.989 68.7415 598.338 68.3551C598.691 67.9659 599.104 67.669 599.578 67.4645C600.056 67.2571 600.577 67.1534 601.142 67.1534C601.614 67.1534 602.053 67.223 602.459 67.3622C602.868 67.5014 603.232 67.6989 603.55 67.9545C603.871 68.2102 604.137 68.5142 604.347 68.8665C604.557 69.2159 604.699 69.6037 604.773 70.0298H603.422ZM608.904 76V67.2727H612.015C612.691 67.2727 613.252 67.3892 613.698 67.6222C614.147 67.8551 614.482 68.1776 614.704 68.5895C614.925 68.9986 615.036 69.4716 615.036 70.0085C615.036 70.5426 614.924 71.0128 614.7 71.419C614.478 71.8224 614.143 72.1364 613.694 72.3608C613.248 72.5852 612.687 72.6974 612.011 72.6974H609.654V71.5639H611.891C612.317 71.5639 612.664 71.5028 612.931 71.3807C613.201 71.2585 613.398 71.081 613.523 70.848C613.648 70.6151 613.711 70.3352 613.711 70.0085C613.711 69.679 613.647 69.3935 613.519 69.152C613.394 68.9105 613.197 68.7259 612.927 68.598C612.66 68.4673 612.309 68.402 611.874 68.402H610.221V76H608.904ZM613.212 72.0625L615.369 76H613.869L611.755 72.0625H613.212ZM619.776 76H618.378L621.519 67.2727H623.04L626.181 76H624.783L622.315 68.858H622.247L619.776 76ZM620.01 72.5824H624.544V73.6903H620.01V72.5824ZM628.379 68.4062V67.2727H635.133V68.4062H632.41V76H631.098V68.4062H628.379ZM640.343 67.2727V76H639.026V67.2727H640.343ZM652.241 71.6364C652.241 72.5682 652.071 73.3693 651.73 74.0398C651.389 74.7074 650.922 75.2216 650.328 75.5824C649.737 75.9403 649.065 76.1193 648.312 76.1193C647.557 76.1193 646.882 75.9403 646.288 75.5824C645.697 75.2216 645.231 74.706 644.89 74.0355C644.55 73.3651 644.379 72.5653 644.379 71.6364C644.379 70.7045 644.55 69.9048 644.89 69.2372C645.231 68.5668 645.697 68.0526 646.288 67.6946C646.882 67.3338 647.557 67.1534 648.312 67.1534C649.065 67.1534 649.737 67.3338 650.328 67.6946C650.922 68.0526 651.389 68.5668 651.73 69.2372C652.071 69.9048 652.241 70.7045 652.241 71.6364ZM650.937 71.6364C650.937 70.9261 650.822 70.3281 650.592 69.8423C650.365 69.3537 650.052 68.9844 649.655 68.7344C649.26 68.4815 648.812 68.3551 648.312 68.3551C647.81 68.3551 647.361 68.4815 646.966 68.7344C646.571 68.9844 646.258 69.3537 646.028 69.8423C645.801 70.3281 645.687 70.9261 645.687 71.6364C645.687 72.3466 645.801 72.946 646.028 73.4347C646.258 73.9205 646.571 74.2898 646.966 74.5426C647.361 74.7926 647.81 74.9176 648.312 74.9176C648.812 74.9176 649.26 74.7926 649.655 74.5426C650.052 74.2898 650.365 73.9205 650.592 73.4347C650.822 72.946 650.937 72.3466 650.937 71.6364ZM663.327 67.2727V76H662.117L657.681 69.5994H657.6V76H656.283V67.2727H657.502L661.942 73.6818H662.023V67.2727H663.327Z" fill="url(#paint16_linear_951_2414)"/>
<path d="M813.129 263.273V272H811.812V263.273H813.129ZM824.49 263.273V272H823.28L818.844 265.599H818.763V272H817.446V263.273H818.665L823.105 269.682H823.186V263.273H824.49ZM829.574 263.273L832.003 270.381H832.101L834.53 263.273H835.953L832.813 272H831.291L828.151 263.273H829.574ZM839.613 272V263.273H845.085V264.406H840.93V267.065H844.8V268.195H840.93V270.866H845.136V272H839.613ZM856.288 263.273V272H855.078L850.642 265.599H850.561V272H849.244V263.273H850.463L854.903 269.682H854.984V263.273H856.288ZM860.178 264.406V263.273H866.933V264.406H864.21V272H862.897V264.406H860.178ZM878.031 267.636C878.031 268.568 877.861 269.369 877.52 270.04C877.179 270.707 876.712 271.222 876.118 271.582C875.527 271.94 874.855 272.119 874.102 272.119C873.347 272.119 872.672 271.94 872.078 271.582C871.487 271.222 871.021 270.706 870.68 270.036C870.339 269.365 870.169 268.565 870.169 267.636C870.169 266.705 870.339 265.905 870.68 265.237C871.021 264.567 871.487 264.053 872.078 263.695C872.672 263.334 873.347 263.153 874.102 263.153C874.855 263.153 875.527 263.334 876.118 263.695C876.712 264.053 877.179 264.567 877.52 265.237C877.861 265.905 878.031 266.705 878.031 267.636ZM876.727 267.636C876.727 266.926 876.612 266.328 876.382 265.842C876.155 265.354 875.842 264.984 875.445 264.734C875.05 264.482 874.602 264.355 874.102 264.355C873.599 264.355 873.151 264.482 872.756 264.734C872.361 264.984 872.048 265.354 871.818 265.842C871.591 266.328 871.477 266.926 871.477 267.636C871.477 268.347 871.591 268.946 871.818 269.435C872.048 269.92 872.361 270.29 872.756 270.543C873.151 270.793 873.599 270.918 874.102 270.918C874.602 270.918 875.05 270.793 875.445 270.543C875.842 270.29 876.155 269.92 876.382 269.435C876.612 268.946 876.727 268.347 876.727 267.636ZM882.073 272V263.273H885.184C885.86 263.273 886.421 263.389 886.867 263.622C887.316 263.855 887.651 264.178 887.873 264.589C888.094 264.999 888.205 265.472 888.205 266.009C888.205 266.543 888.093 267.013 887.868 267.419C887.647 267.822 887.312 268.136 886.863 268.361C886.417 268.585 885.856 268.697 885.179 268.697H882.823V267.564H885.06C885.486 267.564 885.833 267.503 886.1 267.381C886.37 267.259 886.567 267.081 886.692 266.848C886.817 266.615 886.88 266.335 886.88 266.009C886.88 265.679 886.816 265.393 886.688 265.152C886.563 264.911 886.365 264.726 886.096 264.598C885.829 264.467 885.478 264.402 885.043 264.402H883.39V272H882.073ZM886.381 268.062L888.537 272H887.037L884.924 268.062H886.381ZM891.218 263.273H892.713L894.993 267.24H895.087L897.367 263.273H898.862L895.696 268.574V272H894.384V268.574L891.218 263.273Z" fill="url(#paint17_linear_951_2414)"/>
<path d="M806.239 85.4929C806.186 85.0223 805.967 84.6577 805.582 84.3991C805.198 84.1373 804.714 84.0064 804.131 84.0064C803.713 84.0064 803.352 84.0727 803.047 84.2053C802.742 84.3345 802.505 84.5135 802.336 84.7422C802.17 84.9676 802.087 85.2244 802.087 85.5128C802.087 85.7547 802.144 85.9635 802.256 86.1392C802.372 86.3149 802.523 86.4624 802.709 86.5817C802.898 86.6977 803.1 86.7955 803.315 86.875C803.531 86.9512 803.738 87.0142 803.937 87.0639L804.931 87.3224C805.256 87.402 805.589 87.5097 805.93 87.6456C806.272 87.7815 806.588 87.9605 806.88 88.1825C807.172 88.4046 807.407 88.6797 807.586 89.0078C807.768 89.3359 807.859 89.7287 807.859 90.1861C807.859 90.7628 807.71 91.2749 807.412 91.7223C807.117 92.1697 806.688 92.5227 806.124 92.7812C805.564 93.0398 804.886 93.169 804.091 93.169C803.329 93.169 802.669 93.0481 802.112 92.8061C801.555 92.5642 801.12 92.2211 800.805 91.777C800.49 91.3295 800.316 90.7992 800.283 90.1861H801.824C801.854 90.554 801.973 90.8606 802.182 91.1058C802.394 91.3478 802.664 91.5284 802.992 91.6477C803.324 91.7637 803.687 91.8217 804.081 91.8217C804.515 91.8217 804.901 91.7538 805.239 91.6179C805.581 91.4787 805.849 91.2865 806.045 91.0412C806.24 90.7926 806.338 90.5026 806.338 90.1712C806.338 89.8696 806.252 89.6226 806.08 89.4304C805.911 89.2382 805.68 89.0791 805.389 88.9531C805.1 88.8272 804.774 88.7161 804.409 88.62L803.206 88.2919C802.391 88.0698 801.744 87.7434 801.267 87.3125C800.793 86.8816 800.556 86.3116 800.556 85.6023C800.556 85.0156 800.715 84.5036 801.033 84.0661C801.352 83.6286 801.782 83.2888 802.326 83.0469C802.87 82.8016 803.483 82.679 804.166 82.679C804.855 82.679 805.463 82.8 805.99 83.0419C806.52 83.2839 806.938 83.617 807.243 84.0412C807.548 84.4621 807.707 84.946 807.72 85.4929H806.239ZM811.71 82.8182H813.455L816.114 87.4467H816.224L818.884 82.8182H820.629L816.935 89.0028V93H815.404V89.0028L811.71 82.8182ZM833.097 82.8182V93H831.685L826.51 85.5327H826.415V93H824.879V82.8182H826.301L831.481 90.2955H831.576V82.8182H833.097ZM846.595 86.1293H845.044C844.984 85.7978 844.873 85.5062 844.711 85.2543C844.548 85.0024 844.349 84.7886 844.114 84.6129C843.879 84.4373 843.615 84.3047 843.324 84.2152C843.035 84.1257 842.729 84.081 842.404 84.081C841.817 84.081 841.292 84.2285 840.828 84.5234C840.367 84.8184 840.002 85.2509 839.734 85.821C839.469 86.3911 839.336 87.0871 839.336 87.9091C839.336 88.7377 839.469 89.437 839.734 90.0071C840.002 90.5772 840.369 91.008 840.833 91.2997C841.297 91.5914 841.819 91.7372 842.399 91.7372C842.72 91.7372 843.025 91.6941 843.314 91.608C843.605 91.5185 843.869 91.3875 844.104 91.2152C844.339 91.0429 844.538 90.8324 844.701 90.5838C844.866 90.3319 844.981 90.0436 845.044 89.7188L846.595 89.7237C846.512 90.2242 846.351 90.6849 846.113 91.1058C845.877 91.5234 845.574 91.8847 845.203 92.1896C844.835 92.4912 844.414 92.7249 843.94 92.8906C843.466 93.0563 842.949 93.1392 842.389 93.1392C841.507 93.1392 840.722 92.9304 840.032 92.5128C839.343 92.0919 838.799 91.4903 838.402 90.7081C838.007 89.9259 837.81 88.9929 837.81 87.9091C837.81 86.822 838.009 85.889 838.407 85.1101C838.804 84.3279 839.348 83.728 840.037 83.3104C840.727 82.8894 841.511 82.679 842.389 82.679C842.929 82.679 843.433 82.7569 843.9 82.9126C844.371 83.0651 844.793 83.2905 845.168 83.5888C845.542 83.8838 845.852 84.245 846.098 84.6726C846.343 85.0968 846.509 85.5824 846.595 86.1293ZM852.769 82.8182V93H851.233V82.8182H852.769ZM866.025 82.8182V93H864.613L859.437 85.5327H859.343V93H857.806V82.8182H859.228L864.409 90.2955H864.503V82.8182H866.025ZM877.956 86.0348C877.86 85.7332 877.731 85.4631 877.568 85.2244C877.409 84.9825 877.219 84.777 876.997 84.608C876.775 84.4356 876.521 84.3047 876.236 84.2152C875.954 84.1257 875.644 84.081 875.306 84.081C874.733 84.081 874.216 84.2285 873.755 84.5234C873.294 84.8184 872.93 85.2509 872.661 85.821C872.396 86.3878 872.264 87.0821 872.264 87.9041C872.264 88.7294 872.398 89.4271 872.666 89.9972C872.935 90.5672 873.303 90.9998 873.77 91.2947C874.237 91.5897 874.769 91.7372 875.366 91.7372C875.919 91.7372 876.402 91.6245 876.813 91.3991C877.227 91.1738 877.547 90.8556 877.772 90.4446C878.001 90.0303 878.115 89.5431 878.115 88.983L878.513 89.0575H875.6V87.7898H879.602V88.9482C879.602 89.8033 879.419 90.5457 879.055 91.1754C878.694 91.8018 878.193 92.2857 877.553 92.6271C876.917 92.9685 876.188 93.1392 875.366 93.1392C874.445 93.1392 873.636 92.9271 872.94 92.5028C872.247 92.0786 871.707 91.477 871.319 90.6982C870.931 89.916 870.737 88.9879 870.737 87.9141C870.737 87.102 870.85 86.3729 871.075 85.7266C871.301 85.0803 871.617 84.5317 872.025 84.081C872.436 83.6269 872.918 83.2805 873.472 83.0419C874.029 82.8 874.637 82.679 875.296 82.679C875.846 82.679 876.359 82.7602 876.833 82.9226C877.31 83.085 877.734 83.3153 878.105 83.6136C878.48 83.9119 878.79 84.2666 879.035 84.6776C879.28 85.0852 879.446 85.5376 879.532 86.0348H877.956Z" fill="url(#paint18_linear_951_2414)"/>
<path d="M579.69 266.909C579.69 267.996 579.491 268.931 579.094 269.713C578.696 270.492 578.151 271.092 577.458 271.513C576.769 271.93 575.985 272.139 575.106 272.139C574.225 272.139 573.438 271.93 572.745 271.513C572.056 271.092 571.512 270.49 571.114 269.708C570.716 268.926 570.518 267.993 570.518 266.909C570.518 265.822 570.716 264.889 571.114 264.11C571.512 263.328 572.056 262.728 572.745 262.31C573.438 261.889 574.225 261.679 575.106 261.679C575.985 261.679 576.769 261.889 577.458 262.31C578.151 262.728 578.696 263.328 579.094 264.11C579.491 264.889 579.69 265.822 579.69 266.909ZM578.169 266.909C578.169 266.08 578.035 265.383 577.766 264.816C577.501 264.246 577.136 263.815 576.672 263.523C576.212 263.228 575.69 263.081 575.106 263.081C574.52 263.081 573.996 263.228 573.535 263.523C573.075 263.815 572.71 264.246 572.442 264.816C572.176 265.383 572.044 266.08 572.044 266.909C572.044 267.738 572.176 268.437 572.442 269.007C572.71 269.574 573.075 270.005 573.535 270.3C573.996 270.591 574.52 270.737 575.106 270.737C575.69 270.737 576.212 270.591 576.672 270.3C577.136 270.005 577.501 269.574 577.766 269.007C578.035 268.437 578.169 267.738 578.169 266.909ZM584.406 272V261.818H588.035C588.824 261.818 589.478 261.954 589.999 262.226C590.522 262.498 590.913 262.874 591.172 263.354C591.43 263.832 591.56 264.384 591.56 265.01C591.56 265.633 591.429 266.182 591.167 266.656C590.908 267.126 590.517 267.492 589.994 267.754C589.473 268.016 588.819 268.147 588.03 268.147H585.281V266.825H587.891C588.388 266.825 588.792 266.753 589.104 266.611C589.419 266.468 589.649 266.261 589.795 265.989C589.941 265.718 590.013 265.391 590.013 265.01C590.013 264.625 589.939 264.292 589.79 264.011C589.644 263.729 589.414 263.513 589.099 263.364C588.787 263.212 588.378 263.136 587.871 263.136H585.942V272H584.406ZM589.432 267.406L591.947 272H590.197L587.732 267.406H589.432ZM599.525 272H596.229V261.818H599.63C600.627 261.818 601.484 262.022 602.2 262.43C602.916 262.834 603.464 263.416 603.845 264.175C604.23 264.93 604.422 265.837 604.422 266.894C604.422 267.955 604.228 268.866 603.84 269.629C603.456 270.391 602.899 270.978 602.17 271.388C601.441 271.796 600.559 272 599.525 272ZM597.765 270.658H599.441C600.216 270.658 600.861 270.512 601.375 270.22C601.888 269.925 602.273 269.499 602.528 268.942C602.783 268.382 602.911 267.7 602.911 266.894C602.911 266.095 602.783 265.418 602.528 264.861C602.276 264.304 601.9 263.881 601.399 263.593C600.899 263.305 600.277 263.161 599.535 263.161H597.765V270.658ZM609.132 272V261.818H615.516V263.141H610.669V266.243H615.183V267.56H610.669V270.678H615.576V272H609.132ZM620.368 272V261.818H623.997C624.786 261.818 625.441 261.954 625.961 262.226C626.485 262.498 626.876 262.874 627.134 263.354C627.393 263.832 627.522 264.384 627.522 265.01C627.522 265.633 627.391 266.182 627.129 266.656C626.871 267.126 626.48 267.492 625.956 267.754C625.436 268.016 624.781 268.147 623.992 268.147H621.243V266.825H623.853C624.35 266.825 624.755 266.753 625.066 266.611C625.381 266.468 625.611 266.261 625.757 265.989C625.903 265.718 625.976 265.391 625.976 265.01C625.976 264.625 625.901 264.292 625.752 264.011C625.606 263.729 625.376 263.513 625.061 263.364C624.75 263.212 624.34 263.136 623.833 263.136H621.904V272H620.368ZM625.394 267.406L627.91 272H626.16L623.694 267.406H625.394Z" fill="url(#paint19_linear_951_2414)"/>
<defs>
<linearGradient id="paint0_linear_951_2414" x1="720" y1="48.5" x2="720" y2="304.5" gradientUnits="userSpaceOnUse">
<stop stop-color="#080808"/>
<stop offset="0.71" stop-color="#46DD4E"/>
<stop offset="1" stop-color="#46DDD5"/>
</linearGradient>
<linearGradient id="paint1_linear_951_2414" x1="772.5" y1="94" x2="720" y2="256" gradientUnits="userSpaceOnUse">
<stop stop-color="#C7ED30"/>
<stop offset="1" stop-color="#080808"/>
</linearGradient>
<linearGradient id="paint2_linear_951_2414" x1="720" y1="80.5" x2="720" y2="272.5" gradientUnits="userSpaceOnUse">
<stop stop-color="#080808"/>
<stop offset="1" stop-color="#71871B"/>
</linearGradient>
<linearGradient id="paint3_linear_951_2414" x1="720" y1="51.5" x2="720" y2="301.5" gradientUnits="userSpaceOnUse">
<stop stop-color="#080808"/>
<stop offset="1" stop-color="#C7ED30"/>
</linearGradient>
<linearGradient id="paint4_linear_951_2414" x1="445.003" y1="164.499" x2="445.003" y2="194.499" gradientUnits="userSpaceOnUse">
<stop stop-color="white"/>
<stop offset="1" stop-color="white" stop-opacity="0"/>
</linearGradient>
<linearGradient id="paint5_linear_951_2414" x1="489.002" y1="156.502" x2="489.002" y2="206.502" gradientUnits="userSpaceOnUse">
<stop stop-color="white"/>
<stop offset="1" stop-color="white" stop-opacity="0"/>
</linearGradient>
<linearGradient id="paint6_linear_951_2414" x1="549.001" y1="148.501" x2="549.001" y2="218.501" gradientUnits="userSpaceOnUse">
<stop stop-color="white"/>
<stop offset="1" stop-color="white" stop-opacity="0"/>
</linearGradient>
<linearGradient id="paint7_linear_951_2414" x1="625" y1="140.5" x2="625" y2="230.5" gradientUnits="userSpaceOnUse">
<stop stop-color="white"/>
<stop offset="1" stop-color="white" stop-opacity="0"/>
</linearGradient>
<linearGradient id="paint8_linear_951_2414" x1="721" y1="129.797" x2="721" y2="223.202" gradientUnits="userSpaceOnUse">
<stop stop-color="#008838"/>
<stop offset="1" stop-color="#C7ED30"/>
</linearGradient>
<linearGradient id="paint9_linear_951_2414" x1="721" y1="129.797" x2="721" y2="223.202" gradientUnits="userSpaceOnUse">
<stop stop-color="white"/>
<stop offset="1" stop-color="white" stop-opacity="0"/>
</linearGradient>
<linearGradient id="paint10_linear_951_2414" x1="721" y1="152.5" x2="721" y2="200.5" gradientUnits="userSpaceOnUse">
<stop stop-color="#46DDD5"/>
<stop offset="1" stop-color="#DAF75F"/>
</linearGradient>
<linearGradient id="paint11_linear_951_2414" x1="721" y1="152.5" x2="721" y2="200.5" gradientUnits="userSpaceOnUse">
<stop stop-color="white"/>
<stop offset="1" stop-color="white" stop-opacity="0"/>
</linearGradient>
<linearGradient id="paint12_linear_951_2414" x1="817" y1="140.5" x2="817" y2="230.5" gradientUnits="userSpaceOnUse">
<stop stop-color="white"/>
<stop offset="1" stop-color="white" stop-opacity="0"/>
</linearGradient>
<linearGradient id="paint13_linear_951_2414" x1="893.001" y1="148.501" x2="893.001" y2="218.501" gradientUnits="userSpaceOnUse">
<stop stop-color="white"/>
<stop offset="1" stop-color="white" stop-opacity="0"/>
</linearGradient>
<linearGradient id="paint14_linear_951_2414" x1="953.002" y1="156.502" x2="953.002" y2="206.502" gradientUnits="userSpaceOnUse">
<stop stop-color="white"/>
<stop offset="1" stop-color="white" stop-opacity="0"/>
</linearGradient>
<linearGradient id="paint15_linear_951_2414" x1="997.003" y1="164.499" x2="997.003" y2="194.499" gradientUnits="userSpaceOnUse">
<stop stop-color="white"/>
<stop offset="1" stop-color="white" stop-opacity="0"/>
</linearGradient>
<linearGradient id="paint16_linear_951_2414" x1="549" y1="72" x2="675" y2="72" gradientUnits="userSpaceOnUse">
<stop stop-color="#FCFDFF"/>
<stop offset="1" stop-color="#6A6A6A"/>
</linearGradient>
<linearGradient id="paint17_linear_951_2414" x1="792" y1="268" x2="918" y2="268" gradientUnits="userSpaceOnUse">
<stop stop-color="#FCFDFF"/>
<stop offset="1" stop-color="#6A6A6A"/>
</linearGradient>
<linearGradient id="paint18_linear_951_2414" x1="777" y1="88" x2="903" y2="88" gradientUnits="userSpaceOnUse">
<stop stop-color="#FCFDFF"/>
<stop offset="1" stop-color="#6A6A6A"/>
</linearGradient>
<linearGradient id="paint19_linear_951_2414" x1="536" y1="267" x2="662" y2="267" gradientUnits="userSpaceOnUse">
<stop stop-color="#FCFDFF"/>
<stop offset="1" stop-color="#6A6A6A"/>
</linearGradient>
<clipPath id="clip0_951_2414">
<rect width="24" height="24" fill="white" transform="translate(433 164.5)"/>
</clipPath>
<clipPath id="clip1_951_2414">
<rect width="12" height="12" fill="white" transform="translate(439 170.5)"/>
</clipPath>
<clipPath id="clip2_951_2414">
<rect width="40" height="40" fill="white" transform="translate(469 156.5)"/>
</clipPath>
<clipPath id="clip3_951_2414">
<rect width="18" height="18" fill="white" transform="translate(480 167.5)"/>
</clipPath>
<clipPath id="clip4_951_2414">
<rect width="56" height="56" fill="white" transform="translate(521 148.5)"/>
</clipPath>
<clipPath id="clip5_951_2414">
<rect width="28" height="28" fill="white" transform="translate(535 162.5)"/>
</clipPath>
<clipPath id="clip6_951_2414">
<rect width="72" height="72" fill="white" transform="translate(589 140.5)"/>
</clipPath>
<clipPath id="clip7_951_2414">
<rect width="48" height="48" fill="white" transform="translate(697 152.5)"/>
</clipPath>
<clipPath id="clip8_951_2414">
<rect width="72" height="72" fill="white" transform="translate(781 140.5)"/>
</clipPath>
<clipPath id="clip9_951_2414">
<rect width="56" height="56" fill="white" transform="translate(865 148.5)"/>
</clipPath>
<clipPath id="clip10_951_2414">
<rect width="40" height="40" fill="white" transform="translate(933 156.5)"/>
</clipPath>
<clipPath id="clip11_951_2414">
<rect width="25" height="25" fill="white" transform="translate(941 163.5)"/>
</clipPath>
<clipPath id="clip12_951_2414">
<rect width="24" height="24" fill="white" transform="translate(985 164.5)"/>
</clipPath>
<clipPath id="clip13_951_2414">
<rect width="12" height="12" fill="white" transform="translate(991 170.5)"/>
</clipPath>
</defs>
</svg>
