<svg width="16" height="15" viewBox="0 0 16 15" fill="none" xmlns="http://www.w3.org/2000/svg">
<path d="M1.30707 6.92932H6.14948C6.36353 6.92932 6.56881 6.84429 6.72016 6.69293C6.87152 6.54158 6.95655 6.3363 6.95655 6.12225V1.27984C6.95655 1.06579 6.87152 0.860509 6.72016 0.709154C6.56881 0.5578 6.36353 0.47277 6.14948 0.47277H1.30707C1.09302 0.47277 0.887739 0.5578 0.736385 0.709154C0.58503 0.860509 0.5 1.06579 0.5 1.27984V6.12225C0.5 6.3363 0.58503 6.54158 0.736385 6.69293C0.887739 6.84429 1.09302 6.92932 1.30707 6.92932ZM1.30707 15H6.14948C6.36353 15 6.56881 14.915 6.72016 14.7636C6.87152 14.6123 6.95655 14.407 6.95655 14.1929V9.35052C6.95655 9.13647 6.87152 8.93119 6.72016 8.77984C6.56881 8.62848 6.36353 8.54345 6.14948 8.54345H1.30707C1.09302 8.54345 0.887739 8.62848 0.736385 8.77984C0.58503 8.93119 0.5 9.13647 0.5 9.35052V14.1929C0.5 14.407 0.58503 14.6123 0.736385 14.7636C0.887739 14.915 1.09302 15 1.30707 15ZM9.37775 15H14.2202C14.4342 15 14.6395 14.915 14.7908 14.7636C14.9422 14.6123 15.0272 14.407 15.0272 14.1929V9.35052C15.0272 9.13647 14.9422 8.93119 14.7908 8.77984C14.6395 8.62848 14.4342 8.54345 14.2202 8.54345H9.37775C9.1637 8.54345 8.95842 8.62848 8.80707 8.77984C8.65571 8.93119 8.57068 9.13647 8.57068 9.35052V14.1929C8.57068 14.407 8.65571 14.6123 8.80707 14.7636C8.95842 14.915 9.1637 15 9.37775 15ZM15.2637 3.13045L12.3696 0.236299C12.2182 0.0849966 12.013 0 11.799 0C11.585 0 11.3797 0.0849966 11.2284 0.236299L8.33421 3.13045C8.18291 3.28179 8.09791 3.48704 8.09791 3.70104C8.09791 3.91505 8.18291 4.12029 8.33421 4.27164L11.2284 7.16579C11.3797 7.31709 11.585 7.40209 11.799 7.40209C12.013 7.40209 12.2182 7.31709 12.3696 7.16579L15.2637 4.27164C15.415 4.12029 15.5 3.91505 15.5 3.70104C15.5 3.48704 15.415 3.28179 15.2637 3.13045Z" fill="#FCFDFF"/>
</svg>
