<svg width="13" height="15" viewBox="0 0 13 15" fill="none" xmlns="http://www.w3.org/2000/svg">
<path d="M7.40313 13.8003C7.40321 13.9537 7.44247 14.1044 7.5172 14.2384C7.59192 14.3723 7.69962 14.4849 7.83008 14.5655C7.96054 14.6461 8.10943 14.692 8.26263 14.6989C8.41583 14.7058 8.56825 14.6734 8.70543 14.6049L12.3054 12.8049C12.4549 12.7302 12.5806 12.6154 12.6685 12.4733C12.7564 12.3312 12.803 12.1674 12.8031 12.0003V6.8127C12.803 6.65935 12.7638 6.50856 12.6891 6.37464C12.6143 6.24073 12.5066 6.12813 12.3762 6.04752C12.2457 5.96692 12.0968 5.92099 11.9436 5.91409C11.7904 5.90719 11.638 5.93955 11.5008 6.0081L7.90083 7.8081C7.75135 7.88279 7.62562 7.99762 7.53772 8.13973C7.44982 8.28183 7.40321 8.44561 7.40313 8.6127V13.8003ZM11.193 4.1487C11.3423 4.07388 11.4678 3.95899 11.5556 3.81689C11.6433 3.6748 11.6898 3.5111 11.6898 3.3441C11.6898 3.17711 11.6433 3.0134 11.5556 2.87131C11.4678 2.72921 11.3423 2.61433 11.193 2.5395L6.90543 0.395701C6.78051 0.333278 6.64277 0.300781 6.50313 0.300781C6.36348 0.300781 6.22575 0.333278 6.10083 0.395701L1.81323 2.5395C1.66393 2.61433 1.5384 2.72921 1.45067 2.87131C1.36295 3.0134 1.31649 3.17711 1.31649 3.3441C1.31649 3.5111 1.36295 3.6748 1.45067 3.81689C1.5384 3.95899 1.66393 4.07388 1.81323 4.1487L6.10083 6.2925C6.22575 6.35492 6.36348 6.38742 6.50313 6.38742C6.64277 6.38742 6.78051 6.35492 6.90543 6.2925L11.193 4.1487ZM1.50543 6.0081C1.36825 5.93955 1.21583 5.90719 1.06263 5.91409C0.909434 5.92099 0.760541 5.96692 0.63008 6.04752C0.499619 6.12813 0.391917 6.24073 0.317195 6.37464C0.242472 6.50856 0.203207 6.65935 0.203125 6.8127V12.0003C0.203214 12.1674 0.24982 12.3312 0.337722 12.4733C0.425624 12.6154 0.551352 12.7302 0.700825 12.8049L4.30083 14.6049C4.438 14.6734 4.59042 14.7058 4.74362 14.6989C4.89682 14.692 5.04571 14.6461 5.17617 14.5655C5.30663 14.4849 5.41433 14.3723 5.48906 14.2384C5.56378 14.1044 5.60304 13.9537 5.60313 13.8003V8.6127C5.60304 8.44561 5.55643 8.28183 5.46853 8.13973C5.38063 7.99762 5.2549 7.88279 5.10542 7.8081L1.50543 6.0081Z" fill="#FCFDFF"/>
</svg>
