<svg width="14" height="15" viewBox="0 0 14 15" fill="none" xmlns="http://www.w3.org/2000/svg">
<path fill-rule="evenodd" clip-rule="evenodd" d="M3.0172 0.719567C5.66432 0.426811 8.33572 0.426811 10.9828 0.719567C12.429 0.880742 13.5949 2.01734 13.7647 3.4664C14.0784 6.14608 14.0784 8.85312 13.7647 11.5328C13.5949 12.9819 12.429 14.1185 10.9836 14.2804C8.33624 14.5732 5.66457 14.5732 3.0172 14.2804C1.57105 14.1185 0.405146 12.9819 0.235324 11.5336C-0.0784413 8.85363 -0.0784413 6.14633 0.235324 3.4664C0.405146 2.01734 1.57105 0.880742 3.0172 0.719567ZM6.14177 10.8501C6.17808 10.7612 6.1972 10.6663 6.19813 10.5703V3.66711C6.19743 3.5706 6.17769 3.47517 6.14002 3.38629C6.10236 3.2974 6.04752 3.21679 5.97863 3.14908C5.90974 3.08137 5.82816 3.02787 5.73855 2.99166C5.64895 2.95544 5.55306 2.93721 5.45639 2.93802H3.17103C2.97606 2.9368 2.78858 3.01291 2.64978 3.14962C2.51099 3.28633 2.43223 3.47246 2.43082 3.66711V10.5703C2.43082 10.7634 2.50926 10.9489 2.64786 11.0858C2.78646 11.2226 2.97456 11.3002 3.17103 11.3009H5.45563C5.65213 11.3015 5.84094 11.2248 5.98109 11.0873C6.04922 11.0191 6.10375 10.9386 6.14177 10.8501ZM11.3522 8.04471C11.49 7.90865 11.5681 7.72352 11.5692 7.53001V3.66787C11.568 3.47322 11.4895 3.28701 11.3508 3.15016C11.2121 3.01331 11.0247 2.937 10.8298 2.93802H8.54365C8.34865 2.9372 8.16124 3.01339 8.02229 3.14997C7.88334 3.28656 7.80413 3.47245 7.80192 3.66711V7.52925C7.80192 7.72312 7.88035 7.90938 8.01971 8.04623C8.15831 8.18307 8.34717 8.2591 8.54365 8.25986H10.8298C11.0254 8.25928 11.213 8.18202 11.3522 8.04471Z" fill="#FCFDFF"/>
</svg>
