<svg width="15" height="15" viewBox="0 0 15 15" fill="none" xmlns="http://www.w3.org/2000/svg">
<path fill-rule="evenodd" clip-rule="evenodd" d="M13.7896 10.083C15.7071 5.3745 12.2432 0.222656 7.1591 0.222656H6.87675C3.07862 0.222656 -9.53674e-07 3.30127 -9.53674e-07 7.09941C-0.000231743 8.10812 0.198277 9.10699 0.584188 10.039C0.970098 10.9709 1.53585 11.8177 2.24911 12.531C2.96238 13.2443 3.80919 13.81 4.74116 14.1959C5.67313 14.5818 6.672 14.7803 7.68071 14.7801H14.5592C14.6504 14.7803 14.7394 14.7522 14.8138 14.6996C14.8883 14.647 14.9446 14.5726 14.9749 14.4866C15.0053 14.4007 15.0081 14.3074 14.9831 14.2197C14.9581 14.1321 14.9065 14.0543 14.8354 13.9973L13.1008 12.6049C13.0269 12.5455 12.9741 12.4639 12.9503 12.3721C12.9265 12.2803 12.9331 12.1833 12.9689 12.0956L13.7896 10.083ZM6.50908 5.0165C6.50908 4.84154 6.57858 4.67374 6.7023 4.55002C6.82602 4.4263 6.99381 4.3568 7.16878 4.3568C7.34374 4.3568 7.51154 4.4263 7.63526 4.55002C7.75898 4.67374 7.82848 4.84154 7.82848 5.0165V6.77571H9.58769C9.76266 6.77571 9.93046 6.84522 10.0542 6.96894C10.1779 7.09265 10.2474 7.26045 10.2474 7.43542C10.2474 7.61038 10.1779 7.77818 10.0542 7.9019C9.93046 8.02562 9.76266 8.09512 9.58769 8.09512H7.82848V9.85433C7.82848 10.0293 7.75898 10.1971 7.63526 10.3208C7.51154 10.4445 7.34374 10.514 7.16878 10.514C6.99381 10.514 6.82602 10.4445 6.7023 10.3208C6.57858 10.1971 6.50908 10.0293 6.50908 9.85433V8.09512H4.74987C4.5749 8.09512 4.4071 8.02562 4.28339 7.9019C4.15967 7.77818 4.09016 7.61038 4.09016 7.43542C4.09016 7.26045 4.15967 7.09265 4.28339 6.96894C4.4071 6.84522 4.5749 6.77571 4.74987 6.77571H6.50908V5.0165Z" fill="#FCFDFF"/>
</svg>
